<svg width="12" height="9" viewBox="0 0 12 9" fill="none" xmlns="http://www.w3.org/2000/svg">
<path d="M3.70444 7.27722L1.21906 4.79925C1.08514 4.66573 0.903505 4.59072 0.714111 4.59072C0.524717 4.59072 0.34308 4.66573 0.209158 4.79925C0.0752365 4.93278 0 5.11387 0 5.3027C0 5.3962 0.0184712 5.48878 0.0543586 5.57517C0.0902461 5.66155 0.142847 5.74004 0.209158 5.80615L3.20306 8.79113C3.4824 9.06963 3.93363 9.06963 4.21297 8.79113L11.7908 1.23585C11.9248 1.10232 12 0.921228 12 0.732399C12 0.543569 11.9248 0.362474 11.7908 0.228951C11.6569 0.0954287 11.4753 0.0204163 11.2859 0.0204163C11.0965 0.0204163 10.9149 0.0954287 10.7809 0.228951L3.70444 7.27722Z" fill="#5CB85C"/>
</svg>
