<svg width="17" height="18" viewBox="0 0 17 18" fill="none" xmlns="http://www.w3.org/2000/svg">
<path d="M8.18848 15.9379C4.32248 15.9379 1.18848 12.8039 1.18848 8.93787C1.18848 5.07187 4.32248 1.93787 8.18848 1.93787C12.0545 1.93787 15.1885 5.07187 15.1885 8.93787C15.1885 12.8039 12.0545 15.9379 8.18848 15.9379ZM8.18848 16.9379C12.6068 16.9379 16.1885 13.3561 16.1885 8.93787C16.1885 4.51959 12.6068 0.937866 8.18848 0.937866C3.7702 0.937866 0.188477 4.51959 0.188477 8.93787C0.188477 13.3561 3.7702 16.9379 8.18848 16.9379Z" fill="#FEFAEB"/>
<path d="M11.1581 5.90754C11.1511 5.91461 11.1444 5.9221 11.1382 5.92997L7.66587 10.3546L5.57235 8.26109C5.27946 7.9682 4.80459 7.9682 4.51169 8.26109C4.2188 8.55398 4.2188 9.02886 4.51169 9.32175L7.15814 11.9682C7.45103 12.2611 7.92591 12.2611 8.2188 11.9682C8.22532 11.9617 8.23148 11.9548 8.23724 11.9476L12.2294 6.95734C12.5116 6.66368 12.5081 6.19684 12.2188 5.90754C11.9259 5.61464 11.451 5.61464 11.1581 5.90754Z" fill="#FEFAEB"/>
<path d="M8.18848 15.9379C4.32248 15.9379 1.18848 12.8039 1.18848 8.93787C1.18848 5.07187 4.32248 1.93787 8.18848 1.93787C12.0545 1.93787 15.1885 5.07187 15.1885 8.93787C15.1885 12.8039 12.0545 15.9379 8.18848 15.9379ZM8.18848 16.9379C12.6068 16.9379 16.1885 13.3561 16.1885 8.93787C16.1885 4.51959 12.6068 0.937866 8.18848 0.937866C3.7702 0.937866 0.188477 4.51959 0.188477 8.93787C0.188477 13.3561 3.7702 16.9379 8.18848 16.9379Z" stroke="#FEFAEB" stroke-width="0.3" stroke-linecap="round" stroke-linejoin="round"/>
<path d="M11.1581 5.90754C11.1511 5.91461 11.1444 5.9221 11.1382 5.92997L7.66587 10.3546L5.57235 8.26109C5.27946 7.9682 4.80459 7.9682 4.51169 8.26109C4.2188 8.55398 4.2188 9.02886 4.51169 9.32175L7.15814 11.9682C7.45103 12.2611 7.92591 12.2611 8.2188 11.9682C8.22532 11.9617 8.23148 11.9548 8.23724 11.9476L12.2294 6.95734C12.5116 6.66368 12.5081 6.19684 12.2188 5.90754C11.9259 5.61464 11.451 5.61464 11.1581 5.90754Z" stroke="#FEFAEB" stroke-width="0.3" stroke-linecap="round" stroke-linejoin="round"/>
</svg>
