<svg width="18" height="17" viewBox="0 0 18 17" fill="none" xmlns="http://www.w3.org/2000/svg">
<path d="M8.9082 15.3677C5.04221 15.3677 1.9082 12.2337 1.9082 8.36768C1.9082 4.50168 5.04221 1.36768 8.9082 1.36768C12.7742 1.36768 15.9082 4.50168 15.9082 8.36768C15.9082 12.2337 12.7742 15.3677 8.9082 15.3677ZM8.9082 16.3677C13.3265 16.3677 16.9082 12.786 16.9082 8.36768C16.9082 3.9494 13.3265 0.367676 8.9082 0.367676C4.48993 0.367676 0.908203 3.9494 0.908203 8.36768C0.908203 12.786 4.48993 16.3677 8.9082 16.3677Z" fill="#FEFAEB"/>
<path d="M5.55465 5.01412C5.74991 4.81886 6.06649 4.81886 6.26176 5.01412L8.9082 7.66057L11.5546 5.01412C11.7499 4.81886 12.0665 4.81886 12.2618 5.01412C12.457 5.20938 12.457 5.52597 12.2618 5.72123L9.61531 8.36768L12.2618 11.0141C12.457 11.2094 12.457 11.526 12.2618 11.7212C12.0665 11.9165 11.7499 11.9165 11.5546 11.7212L8.9082 9.07478L6.26176 11.7212C6.06649 11.9165 5.74991 11.9165 5.55465 11.7212C5.35939 11.526 5.35939 11.2094 5.55465 11.0141L8.2011 8.36768L5.55465 5.72123C5.35939 5.52597 5.35939 5.20938 5.55465 5.01412Z" fill="#FEFAEB"/>
<path d="M8.9082 15.3677C5.04221 15.3677 1.9082 12.2337 1.9082 8.36768C1.9082 4.50168 5.04221 1.36768 8.9082 1.36768C12.7742 1.36768 15.9082 4.50168 15.9082 8.36768C15.9082 12.2337 12.7742 15.3677 8.9082 15.3677ZM8.9082 16.3677C13.3265 16.3677 16.9082 12.786 16.9082 8.36768C16.9082 3.9494 13.3265 0.367676 8.9082 0.367676C4.48993 0.367676 0.908203 3.9494 0.908203 8.36768C0.908203 12.786 4.48993 16.3677 8.9082 16.3677Z" stroke="#FEFAEB" stroke-width="0.3" stroke-linecap="round" stroke-linejoin="round"/>
<path d="M5.55465 5.01412C5.74991 4.81886 6.06649 4.81886 6.26176 5.01412L8.9082 7.66057L11.5546 5.01412C11.7499 4.81886 12.0665 4.81886 12.2618 5.01412C12.457 5.20938 12.457 5.52597 12.2618 5.72123L9.61531 8.36768L12.2618 11.0141C12.457 11.2094 12.457 11.526 12.2618 11.7212C12.0665 11.9165 11.7499 11.9165 11.5546 11.7212L8.9082 9.07478L6.26176 11.7212C6.06649 11.9165 5.74991 11.9165 5.55465 11.7212C5.35939 11.526 5.35939 11.2094 5.55465 11.0141L8.2011 8.36768L5.55465 5.72123C5.35939 5.52597 5.35939 5.20938 5.55465 5.01412Z" stroke="#FEFAEB" stroke-width="0.3" stroke-linecap="round" stroke-linejoin="round"/>
</svg>
