<svg width="9" height="9" viewBox="0 0 9 9" fill="none" xmlns="http://www.w3.org/2000/svg">
<path d="M8.81038 7.90114C8.93111 8.02186 8.99893 8.18558 8.99893 8.3563C8.99893 8.52702 8.93111 8.69075 8.81038 8.81146C8.68966 8.93218 8.52592 9 8.35519 9C8.18446 9 8.02073 8.93218 7.9 8.81146L4.5 5.41059L1.09893 8.81039C0.978202 8.93111 0.814466 8.99893 0.643736 8.99893C0.473007 8.99893 0.30927 8.93111 0.188546 8.81039C0.0678221 8.68968 1.79893e-09 8.52595 0 8.35523C-1.79893e-09 8.18451 0.0678221 8.02078 0.188546 7.90007L3.58962 4.50027L0.189617 1.0994C0.0688929 0.978679 0.00107106 0.814952 0.00107106 0.644233C0.00107106 0.473514 0.0688929 0.309787 0.189617 0.18907C0.310341 0.0683534 0.474078 0.000535398 0.644807 0.000535396C0.815536 0.000535394 0.979273 0.0683534 1.1 0.18907L4.5 3.58994L7.90107 0.188535C8.0218 0.0678179 8.18553 -2.84418e-09 8.35626 0C8.52699 2.84418e-09 8.69073 0.0678178 8.81145 0.188535C8.93218 0.309251 9 0.472978 9 0.643698C9 0.814417 8.93218 0.978144 8.81145 1.09886L5.41038 4.50027L8.81038 7.90114Z" fill="#CB4E4E"/>
</svg>
