<svg width="17" height="17" viewBox="0 0 17 17" fill="none" xmlns="http://www.w3.org/2000/svg">
<path d="M9.30858 5.75201C9.30858 5.47587 9.08472 5.25201 8.80858 5.25201C8.53244 5.25201 8.30858 5.47587 8.30858 5.75202L8.30859 8.65204H5.30859C5.03245 8.65204 4.80859 8.8759 4.80859 9.15204C4.80859 9.42818 5.03245 9.65204 5.30859 9.65204H8.80859C8.9412 9.65204 9.06838 9.59936 9.16215 9.50559C9.25592 9.41182 9.30859 9.28465 9.30859 9.15204L9.30858 5.75201Z" fill="white"/>
<path d="M7.30859 1.15204C7.30859 0.875896 7.53245 0.652039 7.80859 0.652039H9.80859C10.0847 0.652039 10.3086 0.875896 10.3086 1.15204C10.3086 1.42818 10.0847 1.65204 9.80859 1.65204V2.22298C11.1685 2.41757 12.4022 3.00287 13.3924 3.86151C13.3965 3.85718 13.4006 3.8529 13.4048 3.84869L13.7584 3.49513L13.4048 3.14158C13.2095 2.94632 13.2095 2.62973 13.4048 2.43447C13.6001 2.23921 13.9167 2.23921 14.1119 2.43447L15.5261 3.84869C15.7214 4.04395 15.7214 4.36053 15.5261 4.55579C15.3309 4.75105 15.0143 4.75105 14.819 4.55579L14.4655 4.20224L14.1119 4.55579C14.1077 4.56 14.1034 4.56412 14.0991 4.56815C15.1641 5.79621 15.8086 7.39881 15.8086 9.15204C15.8086 13.018 12.6746 16.152 8.80859 16.152C4.9426 16.152 1.80859 13.018 1.80859 9.15204C1.80859 5.62551 4.41608 2.70843 7.80859 2.22298V1.65204C7.53245 1.65204 7.30859 1.42818 7.30859 1.15204ZM8.80859 3.15204C8.65303 3.15204 8.49893 3.15795 8.34652 3.16954C5.24897 3.40518 2.80859 5.99385 2.80859 9.15204C2.80859 12.4657 5.49488 15.152 8.80859 15.152C12.1223 15.152 14.8086 12.4657 14.8086 9.15204C14.8086 5.99385 12.3682 3.40518 9.27067 3.16954C9.11825 3.15795 8.96416 3.15204 8.80859 3.15204Z" fill="white"/>
</svg>
