<svg width="13" height="13" viewBox="0 0 13 13" fill="none" xmlns="http://www.w3.org/2000/svg">
<path fill-rule="evenodd" clip-rule="evenodd" d="M4.66667 0.453488C4.66667 0.333216 4.71935 0.217869 4.81311 0.132824C4.90688 0.0477781 5.03406 0 5.16667 0H7.83333C7.96594 0 8.09312 0.0477781 8.18689 0.132824C8.28065 0.217869 8.33333 0.333216 8.33333 0.453488C8.33333 0.573761 8.28065 0.689108 8.18689 0.774153C8.09312 0.859199 7.96594 0.906977 7.83333 0.906977H5.16667C5.03406 0.906977 4.90688 0.859199 4.81311 0.774153C4.71935 0.689108 4.66667 0.573761 4.66667 0.453488ZM6.5 2.11628C5.04131 2.11628 3.64236 2.64184 2.61091 3.57734C1.57946 4.51284 1 5.78165 1 7.10465C1 8.42765 1.57946 9.69646 2.61091 10.632C3.64236 11.5675 5.04131 12.093 6.5 12.093C7.95869 12.093 9.35764 11.5675 10.3891 10.632C11.4205 9.69646 12 8.42765 12 7.10465C12 5.78165 11.4205 4.51284 10.3891 3.57734C9.35764 2.64184 7.95869 2.11628 6.5 2.11628ZM0 7.10465C0 3.8486 2.91 1.2093 6.5 1.2093C10.09 1.2093 13 3.8486 13 7.10465C13 10.3607 10.09 13 6.5 13C2.91 13 0 10.3607 0 7.10465ZM6.5 4.23256C6.63261 4.23256 6.75979 4.28034 6.85355 4.36538C6.94732 4.45043 7 4.56577 7 4.68605V7.10465C7 7.22492 6.94732 7.34027 6.85355 7.42532C6.75979 7.51036 6.63261 7.55814 6.5 7.55814C6.36739 7.55814 6.24022 7.51036 6.14645 7.42532C6.05268 7.34027 6 7.22492 6 7.10465V4.68605C6 4.56577 6.05268 4.45043 6.14645 4.36538C6.24022 4.28034 6.36739 4.23256 6.5 4.23256Z" fill="black"/>
</svg>
